<svg width="150" height="48" viewBox="0 0 150 48" fill="none" xmlns="http://www.w3.org/2000/svg">
<g clip-path="url(#clip0_1277_4664)">
<path d="M108.275 3.86963H104.793V27.5295H108.275V3.86963Z" fill="white"/>
<path d="M114.166 23.252C112.864 23.252 111.814 24.3002 111.814 25.6018C111.814 26.9035 112.864 27.9517 114.166 27.9517C115.469 27.9517 116.519 26.9035 116.519 25.6018C116.519 24.3002 115.469 23.252 114.166 23.252Z" fill="white"/>
<path d="M123.321 19.2899C123.321 16.4678 125.015 14.0488 128.301 14.0488H130.377V10.7544H128.301C125.73 10.7544 124.554 11.5722 123.355 12.9315L123.332 12.966V10.7544H119.885V27.5145H123.321C123.321 27.5029 123.321 20.4303 123.321 19.2899Z" fill="white"/>
<path d="M101.011 10.7544H97.5293V27.5145H101.011V10.7544Z" fill="white"/>
<path d="M99.27 7.98048C100.573 7.98048 101.622 6.93226 101.622 5.63062C101.622 4.32898 100.561 3.28076 99.27 3.28076C97.9672 3.28076 96.918 4.32898 96.918 5.63062C96.918 6.93226 97.9787 7.98048 99.27 7.98048Z" fill="white"/>
<path d="M90.3345 12.4535C88.997 11.0942 86.9448 10.334 84.9041 10.334C80.0386 10.334 76.084 14.285 76.084 19.146C76.084 24.007 80.0386 27.958 84.9041 27.958C86.9448 27.958 89.1008 27.0825 90.3345 25.7002V27.5318H93.7587V10.7602H90.3345V12.4535ZM85.0194 24.4562C82.0217 24.4562 79.7388 22.1524 79.7388 19.146C79.7388 16.1395 82.0217 13.8588 85.0194 13.8588C88.017 13.8588 90.3806 16.0013 90.3806 19.146C90.3806 22.2906 88.017 24.4562 85.0194 24.4562Z" fill="white"/>
<path d="M140.015 27.9522C141.571 27.9522 143.555 27.1113 144.8 25.6829C144.811 26.3165 144.8 26.8924 144.8 27.5145H148.224V20.1999V10.7544H144.788V19.958C144.788 22.3424 142.967 24.5656 140.234 24.5656C137.847 24.5656 136.153 22.8378 136.153 20.3612V10.7659H132.717V20.6492C132.728 25.0724 135.115 27.9522 140.015 27.9522Z" fill="white"/>
<path d="M66.0307 10.334C63.7479 10.334 61.5111 11.3707 60.1506 13.0064C58.9055 11.3592 57.0953 10.334 54.6626 10.334C52.6795 10.334 51.2614 11.2209 50.5004 11.9351V10.7602H47.0762V27.5202H50.5004V17.7176C50.5004 15.529 52.2875 13.7551 54.4666 13.7551C56.6457 13.7551 58.4327 15.5405 58.4327 17.7176V27.5202H61.857V17.7176C61.857 15.529 63.6441 13.7551 65.8232 13.7551C68.0022 13.7551 69.7893 15.5405 69.7893 17.7176V27.5202H73.2136V17.7176C73.2366 13.2252 70.3197 10.334 66.0307 10.334Z" fill="white"/>
<path d="M111.251 35.2674L111.228 35.2904V33.9888H110.225H109.21H109.037V43.826H109.21H111.228C111.228 43.8144 111.228 39.8865 111.228 39.2184C111.228 37.5596 112.219 36.1428 114.145 36.1428H115.355V33.9888H114.145C112.646 33.9888 111.954 34.4726 111.251 35.2674Z" fill="white"/>
<path d="M134.804 39.3818C134.804 40.9599 133.536 41.9044 132.302 41.9044C130.999 41.9044 130.077 40.9599 130.077 39.6122V34.0024H127.875V39.7734C127.875 42.5034 129.443 44.0815 132.164 44.0815C133.052 44.0815 134.101 43.6323 134.793 42.9526C134.793 43.1254 134.793 43.2982 134.793 43.471V43.8396H136.983V34.0024H134.781L134.804 39.3818Z" fill="white"/>
<path d="M121.062 33.7485C118.214 33.7485 115.896 36.0638 115.896 38.909C115.896 41.7542 118.214 44.0695 121.062 44.0695C123.909 44.0695 126.227 41.7542 126.227 38.909C126.227 36.0638 123.921 33.7485 121.062 33.7485ZM121.062 41.8809C119.425 41.8809 118.087 40.5447 118.087 38.909C118.087 37.2733 119.425 35.9371 121.062 35.9371C122.699 35.9371 124.036 37.2733 124.036 38.909C124.036 40.5447 122.71 41.8809 121.062 41.8809Z" fill="white"/>
<path d="M144.374 33.7485C143.244 33.7485 142.149 34.1402 141.376 34.8083V33.9904H139.186V47.2142H141.376V42.9522C142.114 43.6433 143.255 44.081 144.374 44.081C147.222 44.081 149.539 41.7657 149.539 38.9205C149.539 36.0638 147.222 33.7485 144.374 33.7485ZM144.305 41.8348C142.587 41.8348 141.342 40.6023 141.342 38.909C141.342 37.2157 142.587 35.9947 144.305 35.9947C145.965 35.9947 147.222 37.2503 147.222 38.909C147.222 40.5793 145.965 41.8348 144.305 41.8348Z" fill="white"/>
<path d="M104.665 34.8083C103.892 34.1402 102.797 33.7485 101.667 33.7485C98.8194 33.7485 96.502 36.0638 96.502 38.909C96.502 41.7542 98.8194 44.0695 101.667 44.0695C102.785 44.0695 103.927 43.6318 104.665 42.9406V43.1365C104.63 45.1523 103.65 46.1775 101.736 46.1775H101.713C100.629 46.1775 99.6725 45.7628 98.7848 44.8989L98.7041 44.8182L97.113 46.3387L97.1822 46.4194C98.0008 47.3754 99.661 48.4697 101.656 48.4697C101.69 48.4697 101.725 48.4697 101.759 48.4697C103.627 48.4352 106.763 47.7095 106.855 43.2171V33.9789H104.665V34.8083ZM101.736 41.8348C100.076 41.8348 98.8194 40.5793 98.8194 38.909C98.8194 37.2503 100.076 35.9947 101.736 35.9947C103.454 35.9947 104.699 37.2157 104.699 38.909C104.688 40.6023 103.454 41.8348 101.736 41.8348Z" fill="white"/>
<path d="M24.0173 18.8434C24.0173 21.8959 21.5385 24.3725 18.4831 24.3725C15.4278 24.3725 12.949 21.8959 12.949 18.8434C12.949 15.7909 15.4278 13.3143 18.4831 13.3143C21.5385 13.3143 24.0173 15.8024 24.0173 18.8434ZM18.4831 0.470703C8.33717 0.470703 0.0820312 8.71826 0.0820312 18.8549C0.0820312 28.9916 8.33717 37.2276 18.4831 37.2276C22.1956 37.2276 25.7813 36.1218 28.8482 34.0254L28.9058 33.9908L26.427 31.1111L26.3809 31.1341C24.0173 32.6431 21.2963 33.4494 18.4831 33.4494C10.424 33.4494 3.86371 26.8951 3.86371 18.8434C3.86371 10.7917 10.424 4.2374 18.4831 4.2374C26.5423 4.2374 33.1026 10.7917 33.1026 18.8434C33.1026 19.8916 32.9873 20.9399 32.7567 21.9881C32.2955 23.8887 30.9696 24.4646 29.9665 24.384C28.9635 24.3034 27.7875 23.5892 27.7759 21.8383V18.8434C27.7759 13.7175 23.6022 9.54763 18.4716 9.54763C13.341 9.54763 9.16729 13.7175 9.16729 18.8434C9.16729 23.9693 13.341 28.1392 18.4716 28.1392C20.962 28.1392 23.3025 27.1601 25.0665 25.3977C26.0926 26.9873 27.7644 27.9894 29.6668 28.1392C29.8282 28.1507 30.0011 28.1622 30.1625 28.1622C31.5 28.1622 32.8259 27.713 33.8981 26.9067C35.0049 26.0658 35.8235 24.8563 36.2732 23.4049C36.3424 23.1745 36.4807 22.6331 36.4807 22.6331V22.6101C36.7459 21.4467 36.8727 20.2833 36.8727 18.8434C36.8842 8.71826 28.6291 0.470703 18.4831 0.470703Z" fill="white"/>
</g>
<defs>
<clipPath id="clip0_1277_4664">
<rect width="150" height="48" fill="white"/>
</clipPath>
</defs>
</svg>
