<svg width="220" height="48" viewBox="0 0 220 48" fill="none" xmlns="http://www.w3.org/2000/svg">
<g clip-path="url(#clip0_1277_4661)">
<path d="M143.503 30.056L140.015 21.953L136.545 30.056L136.302 30.607H143.727L143.503 30.056ZM142.352 15.9757L152.908 39.9999H147.76L145.586 34.9734H134.48L134.322 35.3186L132.281 39.9999H127.273L137.932 15.8364H142.213L142.352 15.9757ZM176.599 32.4784L171.106 15.8425H167.097L161.604 32.4784L156.281 15.8425H151.067L159.497 40.006H163.548L169.041 24.1332L174.534 40.006H178.628L187.04 15.8425H181.947L176.599 32.4784ZM195.839 29.626H204.772V25.2111H195.839V20.2452H208.793V15.8606H191.006V40.006H209.265V35.6033H195.839V29.6078V29.626ZM215.097 15.8606V39.9878H219.942V15.8425L215.097 15.8606ZM92.257 25.5805H81.1866V15.8425H76.2812V40.0241H81.1866V30.1952H92.257V40.0241H97.1624V15.8425H92.257V25.5866V25.5805ZM119.891 15.8364H124.79V29.4806C124.79 36.4087 120.975 40.3815 114.325 40.3815C107.676 40.3815 103.963 36.4753 103.963 29.6744V15.8546H108.869V29.517C108.869 33.5563 110.855 35.7183 114.398 35.7183C117.941 35.7183 119.891 33.6108 119.891 29.6623V15.8425V15.8364Z" fill="white"/>
<path d="M36.8502 37.4503C36.8889 37.4758 36.9342 37.4895 36.9804 37.4895C37.0267 37.4895 37.072 37.4758 37.1107 37.4503C39.9085 36.0514 51.5664 30.1286 56.387 25.4109C58.261 23.7829 59.4149 21.4795 59.5966 19.0037C59.9418 13.5533 54.4309 8.44805 54.4309 8.44805C47.4513 17.2888 41.5212 26.9095 36.7594 37.1172C36.7459 37.1717 36.7466 37.2287 36.7614 37.2828C36.7762 37.3368 36.8048 37.3862 36.8442 37.4261L36.8502 37.4503ZM63.636 24.7085C63.636 24.7085 47.0183 33.6411 38.4188 39.4427C38.3746 39.4725 38.3409 39.5155 38.3224 39.5654C38.3039 39.6154 38.3016 39.67 38.3158 39.7213C38.3158 39.7213 38.4006 39.8788 38.5217 39.8788C41.5982 39.8788 53.2378 39.8788 53.5467 39.8424C54.7023 39.759 55.838 39.4975 56.9138 39.0673C59.7291 37.9616 61.9901 35.7833 63.2 33.0113C64.3505 30.3801 64.5033 27.4199 63.6299 24.6842L63.636 24.7085ZM38.8548 41.3322C38.8084 41.3411 38.7644 41.3597 38.7258 41.3869C38.6872 41.414 38.6548 41.4491 38.6307 41.4897C38.6189 41.5352 38.6189 41.5829 38.6305 41.6284C38.6422 41.674 38.6652 41.7158 38.6973 41.7501C40.5626 43.0945 46.2431 47.0673 48.9926 47.8061C48.9926 47.8061 54.0554 49.5321 58.4399 41.9863L38.873 41.3141L38.8548 41.3322ZM34.228 35.8818C34.279 35.9016 34.3355 35.9021 34.3868 35.8831C34.4381 35.8642 34.4807 35.8271 34.5066 35.7789C36.3718 33.0839 44.8502 20.5056 46.558 12.8689C46.558 12.8689 47.4907 9.17477 46.5944 6.64941C46.1235 5.17251 45.2825 3.84066 44.1515 2.78063C43.0204 1.72059 41.6369 0.967628 40.1326 0.593395C40.1326 0.593395 38.6489 0.211866 37.0562 -0.012207C37.0562 -0.012207 31.2545 7.44881 34.0826 35.6396C34.0771 35.6872 34.0879 35.7352 34.1132 35.7759C34.1385 35.8166 34.1768 35.8475 34.2219 35.8636L34.228 35.8818ZM27.742 0.00596029C26.8941 0.0725765 24.5989 0.611562 24.5989 0.611562C23.1046 0.993999 21.7323 1.75064 20.6113 2.81016C19.4904 3.86968 18.6576 5.1972 18.1917 6.66758C17.2409 9.62292 18.1917 12.8871 18.1917 12.8871C19.9176 20.554 28.4142 33.1808 30.2492 35.8273C30.3703 35.9666 30.4733 35.9121 30.4733 35.9121C30.5261 35.8968 30.5728 35.865 30.6065 35.8215C30.6403 35.778 30.6593 35.7249 30.661 35.6698C33.4952 7.47908 27.7238 0.0180657 27.7238 0.0180657L27.742 0.00596029ZM26.4521 39.7456C26.555 39.5881 26.3854 39.4549 26.3854 39.4549C17.8041 33.6532 1.15002 24.7387 1.15002 24.7387C0.599673 26.43 0.446546 28.2254 0.702519 29.9854C0.958491 31.7455 1.61668 33.4228 2.62597 34.8873C3.63527 36.3517 4.96851 37.5638 6.52218 38.4295C8.07585 39.2952 9.80814 39.7911 11.5845 39.8788C11.8752 39.9333 23.206 39.8788 26.2462 39.8788C26.3278 39.8664 26.4016 39.823 26.4521 39.7577V39.7456ZM26.1614 41.5018C26.1422 41.4487 26.1066 41.4031 26.0598 41.3715C26.013 41.34 25.9574 41.3241 25.901 41.3262L6.34608 41.9984C8.47174 45.7834 12.0448 48.7145 15.7571 47.8182C18.3309 47.1763 24.1326 43.1187 26.0524 41.7622C26.2098 41.6411 26.1553 41.5381 26.1553 41.52L26.1614 41.5018ZM27.9721 37.4806C28.0063 37.4517 28.0302 37.4123 28.04 37.3686C28.0498 37.3249 28.0451 37.2792 28.0266 37.2383C23.2727 26.9891 17.3336 17.3325 10.3309 8.46622C10.3309 8.46622 4.77152 13.7531 5.16516 19.0521C5.25824 20.2741 5.59122 21.4657 6.14508 22.5588C6.69893 23.652 7.4628 24.6253 8.39302 25.4231C13.2378 30.1528 24.9926 36.1301 27.7178 37.4988C27.7618 37.5161 27.8099 37.5202 27.8561 37.5105C27.9024 37.5008 27.9448 37.4778 27.9782 37.4443" fill="white"/>
</g>
<defs>
<clipPath id="clip0_1277_4661">
<rect width="219.361" height="48" fill="white" transform="translate(0.574219)"/>
</clipPath>
</defs>
</svg>
