<svg viewBox="0 0 22 22" fill="none" xmlns="http://www.w3.org/2000/svg"><path d="M15.125 11c0-1.146-.401-2.12-1.203-2.922S12.146 6.875 11 6.875c-1.146 0-2.12.401-2.922 1.203S6.875 9.854 6.875 11c0 1.146.401 2.12 1.203 2.922S9.854 15.125 11 15.125c1.146 0 2.12-.401 2.922-1.203s1.203-1.776 1.203-2.922ZM0 9.625v9.625c0 .76.269 1.407.806 1.944A2.65 2.65 0 0 0 2.75 22h16.5a2.65 2.65 0 0 0 1.944-.806A2.65 2.65 0 0 0 22 19.25V2.75a2.65 2.65 0 0 0-.806-1.944A2.65 2.65 0 0 0 19.25 0H2.75A2.65 2.65 0 0 0 .806.806 2.65 2.65 0 0 0 0 2.75v4.125h5.5a7.037 7.037 0 0 1 2.406-2.009A6.66 6.66 0 0 1 11 4.125a6.66 6.66 0 0 1 3.094.741A7.037 7.037 0 0 1 16.5 6.875H22v2.75h-4.254c.086.458.129.917.129 1.375a6.707 6.707 0 0 1-.924 3.448 6.876 6.876 0 0 1-2.503 2.503 6.707 6.707 0 0 1-3.448.924 6.707 6.707 0 0 1-3.448-.924 6.876 6.876 0 0 1-2.503-2.503A6.707 6.707 0 0 1 4.125 11c0-.458.043-.917.129-1.375H0Z" fill="#009FAC"/></svg>