<svg viewBox="0 0 22 22" fill="none" xmlns="http://www.w3.org/2000/svg"><path d="M22 19.556V2.444A2.455 2.455 0 0 0 19.55 0H2.45C1.046 0 0 1.043 0 2.444v17.112C0 20.959 1.045 22 2.45 22h17.1A2.454 2.454 0 0 0 22 19.556Zm-4.664-6.592s1.384 1.365 1.725 1.998c.01.014.013.026.017.031.138.232.173.416.104.55-.115.224-.506.336-.64.346H16.1c-.171 0-.525-.044-.956-.341-.33-.23-.656-.61-.974-.98-.474-.55-.885-1.027-1.298-1.027a.47.47 0 0 0-.154.026c-.314.1-.712.546-.712 1.738 0 .372-.294.585-.501.585h-1.12c-.381 0-2.367-.133-4.126-1.99-2.159-2.273-4.097-6.833-4.114-6.873-.122-.295.13-.455.406-.455h2.468c.332 0 .438.2.514.38.085.204.408 1.028.936 1.954.86 1.507 1.388 2.12 1.81 2.12a.463.463 0 0 0 .225-.059c.551-.304.449-2.27.424-2.675 0-.077-.001-.88-.282-1.264-.203-.279-.547-.385-.754-.426a.902.902 0 0 1 .325-.276c.377-.188 1.058-.215 1.735-.215h.377c.734.01.925.058 1.19.125.537.128.548.476.5 1.662-.013.337-.028.72-.028 1.168 0 .097-.004.203-.004.313-.017.607-.036 1.292.391 1.573.056.035.12.054.185.054.15 0 .595 0 1.804-2.074.532-.915.941-1.996.97-2.077a.646.646 0 0 1 .18-.223.424.424 0 0 1 .203-.048h2.903c.318 0 .533.048.573.169.07.194-.013.787-1.34 2.579l-.59.782c-1.203 1.574-1.203 1.655.071 2.85Z" fill="#009FAC"/></svg>